<svg xmlns:xlink="http://www.w3.org/1999/xlink" xmlns="http://www.w3.org/2000/svg" version="1.1" viewBox="0 0 120 120" height="120px" width="120px">
    <title>添加角色svg</title>
    <defs>
        <polygon points="0 0 7.38516746 0 7.38516746 7.38516746 0 7.38516746" id="path-1"></polygon>
        <polygon points="0 0 9.23145933 0 9.23145933 9.23145933 0 9.23145933" id="path-3"></polygon>
        <polygon points="0 0 7.38516746 0 7.38516746 7.38516746 0 7.38516746" id="path-5"></polygon>
    </defs>
    <g fill-rule="evenodd" fill="none" stroke-width="1" stroke="none" id="调整">
        <g transform="translate(-627.000000, -917.000000)" id="切图备份">
            <g transform="translate(506.000000, 856.000000)" id="编组-6备份">
                <rect height="242" width="362" y="0" x="0" id="矩形备份-19"></rect>
                <g transform="translate(141.000000, 77.000000)" id="编组-4">
                    <path fill="#000000" fill-opacity="0.05" id="椭圆形" d="M67.5181856,94.1856796 C77.6793779,95.6387233 87.2949562,92.6694115 86.8706665,88.1127791 C86.4463768,83.5561467 77.9724645,86.325077 69.1520387,84.2334888 C58.0910208,82.0146862 48.7511962,85.5914095 48.7511962,89.0516776 C48.7511962,92.5119457 57.3569933,92.7326358 67.5181856,94.1856796 Z"></path>
                    <g id="编组-3">
                        <rect rx="10" height="79" width="65" y="0" x="0" fill="#FFFFFF" stroke-width="2" stroke="#EFEFEF" id="矩形"></rect>
                        <g transform="translate(6.000000, 7.000000)" id="编组-9">
                            <g fill-rule="nonzero" transform="translate(9.589473, 9.665508) rotate(11.000000) translate(-9.589473, -9.665508) translate(2.089473, 1.665508)" id="编组-7">
                                <path fill="#E6E6E6" id="eef8a7e5-3026-4df7-9c38-b31908ca0085-1827" d="M14.4702045,6.23089394 C15.0838128,9.1160296 13.8990375,12.086705 11.4683375,13.7576988 C9.03763745,15.4286925 5.83969741,15.4709312 3.36571181,13.8647188 C0.891726211,12.2585064 -0.371095843,9.32015907 0.166097595,6.41982355 C0.703291033,3.51948803 2.93470891,1.22833573 5.81984457,0.614727403 C7.71170373,0.212366926 9.68591434,0.578024929 11.3081719,1.63126069 C12.9304294,2.68449645 14.0678467,4.33903422 14.4702045,6.23089394 Z"></path>
                                <path fill="#FFFFFF" id="a3469722-1f94-4c8c-8be2-4ca7447cd0bf-1828" d="M11.4162255,12.7385733 C11.4851626,13.0614052 11.5212078,13.390392 11.523809,13.720492 C9.90126421,14.8561321 7.88722527,15.2844759 5.94296206,14.907421 C5.81100822,14.6048309 5.71005222,14.2896499 5.64164072,13.9667064 C5.28477719,12.2887607 5.83788738,10.6888091 6.91366855,9.9649768 C5.85814387,9.76354033 5.09095136,8.84593521 5.07967708,7.77142049 C5.06840279,6.69690576 5.81617268,5.76340498 6.86723832,5.53986523 C7.91830396,5.31632549 8.98124339,5.86472615 9.40821965,6.85082973 C9.83519591,7.83693331 9.50782415,8.98732944 8.62562986,9.60087833 C9.9033538,9.82416951 11.0593689,11.0606275 11.4162255,12.7385733 Z"></path>
                            </g>
                            <g fill-rule="nonzero" transform="translate(9.589473, 32.876034) rotate(11.000000) translate(-9.589473, -32.876034) translate(2.089473, 24.876034)" id="编组-7备份-2">
                                <path fill="#E6E6E6" id="eef8a7e5-3026-4df7-9c38-b31908ca0085-1827" d="M14.4702045,6.23089394 C15.0838128,9.1160296 13.8990375,12.086705 11.4683375,13.7576988 C9.03763745,15.4286925 5.83969741,15.4709312 3.36571181,13.8647188 C0.891726211,12.2585064 -0.371095843,9.32015907 0.166097595,6.41982355 C0.703291033,3.51948803 2.93470891,1.22833573 5.81984457,0.614727403 C7.71170373,0.212366926 9.68591434,0.578024929 11.3081719,1.63126069 C12.9304294,2.68449645 14.0678467,4.33903422 14.4702045,6.23089394 Z"></path>
                                <path fill="#FFFFFF" id="a3469722-1f94-4c8c-8be2-4ca7447cd0bf-1828" d="M11.4162255,12.7385733 C11.4851626,13.0614052 11.5212078,13.390392 11.523809,13.720492 C9.90126421,14.8561321 7.88722527,15.2844759 5.94296206,14.907421 C5.81100822,14.6048309 5.71005222,14.2896499 5.64164072,13.9667064 C5.28477719,12.2887607 5.83788738,10.6888091 6.91366855,9.9649768 C5.85814387,9.76354033 5.09095136,8.84593521 5.07967708,7.77142049 C5.06840279,6.69690576 5.81617268,5.76340498 6.86723832,5.53986523 C7.91830396,5.31632549 8.98124339,5.86472615 9.40821965,6.85082973 C9.83519591,7.83693331 9.50782415,8.98732944 8.62562986,9.60087833 C9.9033538,9.82416951 11.0593689,11.0606275 11.4162255,12.7385733 Z"></path>
                            </g>
                            <g fill-rule="nonzero" transform="translate(9.531018, 55.622197) rotate(11.000000) translate(-9.531018, -55.622197) translate(2.031018, 48.122197)" id="编组-7备份-3">
                                <path fill="#E6E6E6" id="eef8a7e5-3026-4df7-9c38-b31908ca0085-1827" d="M14.4767448,6.18899906 C15.0903531,9.07413472 13.9055778,12.0448101 11.4748778,13.7158039 C9.04417772,15.3867977 5.84623768,15.4290363 3.37225209,13.8228239 C0.898266486,12.2166115 -0.364555569,9.27826419 0.172637869,6.37792867 C0.709831308,3.47759314 2.94124919,1.18644085 5.82638484,0.572832522 C7.718244,0.170472044 9.69245461,0.536130048 11.3147121,1.58936581 C12.9369697,2.64260157 14.0743869,4.29713933 14.4767448,6.18899906 Z"></path>
                                <path fill="#FFFFFF" id="a3469722-1f94-4c8c-8be2-4ca7447cd0bf-1828" d="M11.4227658,12.6966784 C11.4917028,13.0195103 11.5277481,13.3484971 11.5303492,13.6785972 C9.90780448,14.8142372 7.89376554,15.242581 5.94950233,14.8655261 C5.81754849,14.562936 5.7165925,14.247755 5.64818099,13.9248116 C5.29131747,12.2468658 5.84442766,10.6469143 6.92020883,9.92308192 C5.86468415,9.72164545 5.09749164,8.80404033 5.08621735,7.7295256 C5.07494307,6.65501088 5.82271295,5.7215101 6.87377859,5.49797035 C7.92484423,5.27443061 8.98778366,5.82283127 9.41475992,6.80893485 C9.84173619,7.79503843 9.51436442,8.94543456 8.63217014,9.55898344 C9.90989408,9.78227462 11.0659091,11.0187326 11.4227658,12.6966784 Z"></path>
                            </g>
                            <rect rx="0.791267943" height="1.58253589" width="19" y="10.5502392" x="20.5311005" fill="#F4F4F4" id="矩形"></rect>
                            <rect rx="0.791267943" height="1.58253589" width="19" y="33.7607656" x="20.5311005" fill="#F4F4F4" id="矩形备份-4"></rect>
                            <rect rx="0.791267943" height="1.58253589" width="19" y="56.9712919" x="20.5311005" fill="#F4F4F4" id="矩形备份-6"></rect>
                            <rect rx="0.791267943" height="1.58253589" width="14" y="6.33014354" x="20.5311005" fill="#F4F4F4" id="矩形备份-3"></rect>
                            <rect rx="0.791267943" height="1.58253589" width="14" y="29.5406699" x="20.5311005" fill="#F4F4F4" id="矩形备份-5"></rect>
                            <rect rx="0.791267943" height="1.58253589" width="14" y="52.7511962" x="20.5311005" fill="#F4F4F4" id="矩形备份-7"></rect>
                            <g transform="translate(42.751196, 5.802632)" id="tianjia">
                                <mask fill="white" id="mask-2">
                                    <use xlink:href="#path-1"></use>
                                </mask>
                                <g id="Clip-2"></g>
                                <path mask="url(#mask-2)" fill="#DADADA" id="Fill-1" d="M3.69260627,-1.15463195e-13 C1.65321755,-1.15463195e-13 -1.20792265e-13,1.65321755 -1.20792265e-13,3.69260627 C-1.20792265e-13,5.73194991 1.65321755,7.38516746 3.69260627,7.38516746 C5.73194991,7.38516746 7.38516746,5.73194991 7.38516746,3.69260627 C7.38516746,1.65321755 5.73194991,-1.15463195e-13 3.69260627,-1.15463195e-13 Z M5.91965348,3.69260627 C5.91908552,3.89241712 5.75723729,4.05426536 5.55739038,4.05486035 L4.05486035,4.05486035 L4.05486035,5.55739038 C4.05426536,5.75723729 3.89241712,5.91908552 3.69260627,5.91965348 C3.49275936,5.91908552 3.33090211,5.75723729 3.33034317,5.55739038 L3.33034317,4.05486035 L1.82777709,4.05486035 C1.62793017,4.05426536 1.46608194,3.89241712 1.46551399,3.69260627 C1.46608194,3.49275936 1.62793017,3.33090211 1.82777709,3.33034317 L3.33034317,3.33034317 L3.33034317,1.82777709 C3.33090211,1.62793017 3.49275936,1.46608194 3.69260627,1.46551399 C3.89241712,1.46608194 4.05426536,1.62793017 4.05486035,1.82777709 L4.05486035,3.33034317 L5.55739038,3.33034317 C5.75723729,3.33090211 5.91908552,3.49275936 5.91965348,3.69260627 Z"></path>
                            </g>
                            <g transform="translate(41.751196, 27.802632)" id="tianjia备份-2">
                                <mask fill="white" id="mask-4">
                                    <use xlink:href="#path-3"></use>
                                </mask>
                                <g id="Clip-2"></g>
                                <path mask="url(#mask-4)" fill="#FA7268" id="Fill-1" d="M4.61575784,-2.93098879e-14 C2.06652194,-2.93098879e-14 -3.64153152e-14,2.06652194 -3.64153152e-14,4.61575784 C-3.64153152e-14,7.16493739 2.06652194,9.23145933 4.61575784,9.23145933 C7.16493739,9.23145933 9.23145933,7.16493739 9.23145933,4.61575784 C9.23145933,2.06652194 7.16493739,-2.93098879e-14 4.61575784,-2.93098879e-14 Z M7.39956685,4.61575784 C7.39885691,4.8655214 7.19654661,5.0678317 6.94673797,5.06857544 L5.06857544,5.06857544 L5.06857544,6.94673797 C5.0678317,7.19654661 4.8655214,7.39885691 4.61575784,7.39956685 C4.36594919,7.39885691 4.16362763,7.19654661 4.16292896,6.94673797 L4.16292896,5.06857544 L2.28472136,5.06857544 C2.03491272,5.0678317 1.83260242,4.8655214 1.83189248,4.61575784 C1.83260242,4.36594919 2.03491272,4.16362763 2.28472136,4.16292896 L4.16292896,4.16292896 L4.16292896,2.28472136 C4.16362763,2.03491272 4.36594919,1.83260242 4.61575784,1.83189248 C4.8655214,1.83260242 5.0678317,2.03491272 5.06857544,2.28472136 L5.06857544,4.16292896 L6.94673797,4.16292896 C7.19654661,4.16362763 7.39885691,4.36594919 7.39956685,4.61575784 Z"></path>
                            </g>
                            <g transform="translate(42.751196, 52.223684)" id="tianjia备份">
                                <mask fill="white" id="mask-6">
                                    <use xlink:href="#path-5"></use>
                                </mask>
                                <g id="Clip-2"></g>
                                <path mask="url(#mask-6)" fill="#DADADA" id="Fill-1" d="M3.69260627,-1.13686838e-13 C1.65321755,-1.13686838e-13 -1.20792265e-13,1.65321755 -1.20792265e-13,3.69260627 C-1.20792265e-13,5.73194991 1.65321755,7.38516746 3.69260627,7.38516746 C5.73194991,7.38516746 7.38516746,5.73194991 7.38516746,3.69260627 C7.38516746,1.65321755 5.73194991,-1.13686838e-13 3.69260627,-1.13686838e-13 Z M5.91965348,3.69260627 C5.91908552,3.89241712 5.75723729,4.05426536 5.55739038,4.05486035 L4.05486035,4.05486035 L4.05486035,5.55739038 C4.05426536,5.75723729 3.89241712,5.91908552 3.69260627,5.91965348 C3.49275936,5.91908552 3.33090211,5.75723729 3.33034317,5.55739038 L3.33034317,4.05486035 L1.82777709,4.05486035 C1.62793017,4.05426536 1.46608194,3.89241712 1.46551399,3.69260627 C1.46608194,3.49275936 1.62793017,3.33090211 1.82777709,3.33034317 L3.33034317,3.33034317 L3.33034317,1.82777709 C3.33090211,1.62793017 3.49275936,1.46608194 3.69260627,1.46551399 C3.89241712,1.46608194 4.05426536,1.62793017 4.05486035,1.82777709 L4.05486035,3.33034317 L5.55739038,3.33034317 C5.75723729,3.33090211 5.91908552,3.49275936 5.91965348,3.69260627 Z"></path>
                            </g>
                        </g>
                    </g>
                    <g transform="translate(54.391076, 21.655372)" id="编组-10">
                        <g transform="translate(7.326537, 0.000000)" id="编组-7备份">
                            <g transform="translate(0.282387, 0.344628)" id="编组-2">
                                <g id="undraw_folder_files_re_2cbm">
                                    <polygon points="13.2450727 65.4716981 11.7620797 65.4715874 11.0566038 59.4528302 13.245283 59.4529409" fill-rule="nonzero" fill="#FFD0C7" id="路径"></polygon>
                                    <polygon points="5.58459015 65.4716981 4.10170238 65.4715874 3.39622642 59.4528302 5.58490566 59.4529409" fill-rule="nonzero" fill="#FFD0C7" id="路径"></polygon>
                                    <path transform="translate(3.262898, 66.112779) rotate(19.000000) translate(-3.262898, -66.112779)" fill-rule="nonzero" fill="#2F2E41" id="路径" d="M5.43710928,66.8307532 L4.37708526,67.1957488 L4.37708526,67.1957488 C1.91978694,67.6456198 0.666067997,67.5517865 0.61592842,66.9142489 C0.616017008,65.8261686 1.72852566,65.2960659 2.54514581,65.2934251 C3.08955924,65.2916646 3.49010001,65.1870569 3.7467681,64.979602 L4.21496541,65.1069357 L4.86538072,64.8829797 L5.24968385,64.7506357 L5.74708584,66.1952094 C5.83698673,66.4563073 5.69820603,66.7408489 5.43710928,66.8307532 Z"></path>
                                    <path transform="translate(10.926230, 66.112779) rotate(19.000000) translate(-10.926230, -66.112779)" fill-rule="nonzero" fill="#2F2E41" id="路径" d="M13.1004407,66.8307532 L12.0404166,67.1957488 L12.0404166,67.1957488 C9.58311833,67.6456198 8.32939938,67.5517865 8.2792598,66.9142489 C8.27934839,65.8261686 9.39185705,65.2960659 10.2084772,65.2934251 C10.7528906,65.2916646 11.1534314,65.1870569 11.4100995,64.979602 L11.8782968,65.1069357 L12.5287121,64.8829797 L12.9130152,64.7506357 L13.4104172,66.1952094 C13.5003181,66.4563073 13.3615374,66.7408489 13.1004407,66.8307532 Z"></path>
                                    <path transform="translate(9.281272, 47.596946) scale(-1, 1) rotate(-5.000000) translate(-9.281272, -47.596946)" fill-rule="nonzero" fill="#FA7268" id="路径" d="M4.97533502,31.8108579 L15.2894763,32.1131762 C15.6883868,35.0318922 15.5626193,41.6334331 14.9121738,51.9177986 C14.9121738,51.9177986 14.5926684,61.4179261 14.3735258,61.6362687 C14.1543832,61.8546113 13.9352417,61.6362687 14.1543832,62.1821331 C14.3735247,62.7279974 14.5926684,62.5096515 14.3735258,62.7279974 C14.1794078,62.9365346 13.996532,63.1551876 13.8256699,63.3830342 L11.1765513,63.3830342 C11.1765513,63.3830342 10.9768251,62.2913055 10.9768251,62.1821331 C10.9768251,62.0729607 10.7576825,61.4179239 10.7576825,61.3087503 C10.7576825,61.1995768 10.9513737,61.006592 10.9513737,61.006592 C11.0183047,60.7846643 11.0635229,60.5568037 11.0863958,60.3261963 C11.0863958,60.1078503 11.2074028,51.5566864 11.2074028,51.5566864 L9.71267652,40.4846944 L7.51744928,51.7142582 C7.51744928,51.7142582 7.25140425,60.8720584 7.03226164,61.0904044 C6.81311904,61.3087503 6.81311904,61.1995768 6.92269091,61.6362676 C7.03226278,62.0729584 7.47054571,61.963786 7.14183238,62.2913044 C6.81311904,62.6188227 6.7035483,62.0729595 6.81311904,62.6188227 L6.92269091,63.1646871 L3.63555753,63.2115371 C3.63555753,63.2115371 3.19727232,62.2913044 3.41641492,61.963786 C3.63555753,61.6362676 3.62240813,61.7256692 3.35505486,61.1896914 C3.08770158,60.6537136 2.97813085,60.54454 3.08770158,60.4353676 C3.19727232,60.3261952 3.19727232,59.745516 3.19727232,59.745516 L3.4578896,50.016015 C3.4578896,50.016015 3.96351917,38.2828113 3.96351917,37.9552929 C3.9294391,35.7156351 4.26671104,33.6674901 4.97533502,31.8108579 Z"></path>
                                    <path fill="#FFD0C7" id="路径-2" d="M6.34337234,9.29914284 C6.79122162,10.0008012 7.01514626,10.6699356 7.01514626,11.3065458 C7.01514626,11.9431561 8.05005709,11.7713235 10.1198788,10.791048 L9.82535553,8.56114197 L6.34337234,9.29914284 Z"></path>
                                    <circle r="3.55660377" cy="6.19811321" cx="7.68867925" fill-rule="nonzero" fill="#FFDCD5" id="椭圆形"></circle>
                                    <path fill-rule="nonzero" fill="#2F2E41" id="路径" d="M8.28929138,9.56408501 C8.93577513,9.56408501 9.37405396,9.39816666 10.0940285,9.56870842 C10.1667137,9.11405945 10.5836557,8.76632561 10.7732697,8.56114197 C12.7337456,6.43968582 13.1777605,3.2683837 10.8339739,2.05196485 C10.8033452,2.03606862 10.9328578,1.80197703 10.9080544,1.77690029 C10.8849337,1.75352486 10.7032796,1.87293051 10.6792526,1.84998512 C10.629877,1.80283218 10.7325335,1.42367961 10.6792526,1.3786478 C10.6187521,1.32751409 10.4128812,1.66742181 10.3472013,1.61958802 C10.3111279,1.59331621 10.3848729,1.32549188 10.3472013,1.30035591 C10.3007796,1.26938153 10.1425237,1.48140287 10.0936321,1.45232196 C9.78184542,1.2668699 9.41935444,1.1218131 9,1.04130554 C7.62429103,0.777197273 4.75369937,0.625875473 4.15671227,3.2683837 C4.00642259,3.62955434 3.84344069,4.03038025 3.66776657,4.47086143 L4.15671227,4.38632774 L4.31116676,4.71516609 L4.69370079,4.47086143 C4.14602534,4.66836866 4.49812508,5.32464345 5.75,6.43968582 C7.62781239,8.11224937 8.1514473,8.4025383 8.28929138,9.56408501 Z"></path>
                                </g>
                                <circle r="1" cy="6.75" cx="6.05" fill="#FFC8BE" id="椭圆形"></circle>
                            </g>
                        </g>
                        <g fill-rule="nonzero" transform="translate(0.000000, 10.208323)" id="编组-8">
                            <path fill="#FFCBC1" id="路径" d="M2.78624584,11.4538186 C2.85600128,11.3878924 2.91978392,11.3159207 2.97684697,11.2387463 L7.32653707,12.6265691 L12.9089239,12.6265691 C12.7184296,10.8560202 12.3291215,9.97074571 11.7409994,9.97074571 C11.1528774,9.97074571 9.77551886,10.0884372 7.60892393,10.3238202 C5.73627014,10.2921755 4.32160365,10.174484 3.36492445,9.97074571 C3.19366364,9.93427332 2.88793473,9.74173938 2.44773771,9.39314391 C1.678697,8.91024699 0.959335098,8.87425908 0.46547358,9.63630492 C0.057410787,10.2724875 -0.0650835722,10.8633026 0.46547358,11.4015894 C1.0951536,12.0495103 2.12806834,12.072752 2.78624584,11.4538186 Z"></path>
                            <path fill="#EAEAEA" id="路径" d="M10.3945074,9.63630492 L14.312011,4.30453736 C14.6338961,3.78449116 15.1707652,3.43491539 15.776571,3.35090694 C16.3823769,3.2668985 16.9941113,3.45719487 17.445361,3.87002874 C18.1581303,4.51643432 18.3232124,5.5725888 17.8416936,6.40566743 L13.4352291,12.9486447 L10.3945074,9.63630492 Z"></path>
                            <path opacity="0.1" fill="#000000" id="路径备份-2" d="M12.541049,6.74468523 L12.541049,11.9262086 C13.7535327,12.024751 14.3597746,11.4703947 14.3597746,10.2631398 C14.3597746,9.05588484 14.275801,7.6005284 14.1078539,5.89707047 L14.312011,4.30453736 L12.541049,6.74468523 Z"></path>
                            <path fill="#EAEAEA" id="路径" d="M12.3094152,22.5602211 C12.1278631,22.5611222 11.9734787,22.4480404 11.9216916,22.2816288 C11.5901963,21.2341369 11.7194375,18.180954 12.3094152,13.1220799 C13.5924391,6.8341557 14.2384656,3.67766378 14.2474946,3.65260415 L14.7547152,2.26250634 C14.8125378,2.10508773 14.962285,2.00033849 15.129987,2.00000111 C15.9984994,1.93952145 16.4736867,1.87912973 16.5555488,1.81882596 C16.8676184,1.58893976 18.1058162,0.633392063 18.1159688,0.65776068 C18.3610722,1.24332905 19.9720563,1.57623278 21.1459494,4.27908903 C22.3198424,6.98194529 22.6700901,16.2007005 22.5751895,16.3656741 C22.5457271,16.4167993 22.5123871,16.4747293 22.5181877,16.5005612 C22.6274742,16.9929318 22.350507,17.0641658 22.2174748,17.0984293 C22.2084254,17.1007499 22.1979916,17.1034569 22.1883165,17.106164 C22.2213229,17.1503109 22.2579845,17.191603 22.2979135,17.2296035 C22.3940234,17.3085739 22.4517579,17.4248881 22.4565447,17.5491882 C22.4314652,17.6877619 22.3484643,17.8090568 22.2283806,17.8826202 C22.1672794,17.9337454 22.0979794,17.9916754 22.0965918,18.0304248 C22.0958188,18.0532344 22.1224253,18.082399 22.1383572,18.0976355 C22.2070378,18.1636107 22.3009342,18.2395619 22.4003207,18.319999 C22.688116,18.5529595 23.0143519,18.8169331 23.0276559,19.0702337 C23.0321414,19.1594972 22.996953,19.2461807 22.9315182,19.3070607 L22.1913372,20.0469313 C22.1379707,20.1405172 22.382526,20.7202897 22.4926695,20.8505325 L22.491586,22.289289 L22.4545394,22.3208454 C22.5202051,22.4281918 22.5293287,22.5608358 22.4789789,22.676162 C22.4172976,22.8076843 22.283573,22.8901842 22.1383572,22.886436 L12.3094152,22.5602211 Z"></path>
                            <path opacity="0.1" fill="#000000" id="路径" d="M13.4504118,14.3454686 C13.4504118,14.2916187 14.0661423,15.2092467 15.2976032,17.0983525 L15.6544258,6.62278372 C14.1850831,12.6821181 13.4504118,15.2563464 13.4504118,14.3454686 Z"></path>
                            <path fill="#FFCBC1" id="路径" d="M8.63964007,21.6332017 C8.64423217,21.5373323 8.64032874,21.4412446 8.62797549,21.3460636 C10.8296218,20.7771083 12.4320397,20.3290861 13.4352291,20.0019971 C14.0460136,19.8028513 16.3765143,18.8829181 17.6105662,18.1099949 C18.3736784,17.6320352 18.6658162,16.6323556 18.4869795,15.1109563 L15.2976032,12.9486447 C15.3585544,14.8021896 15.2292792,15.9830006 14.9097777,16.4910775 C14.1962908,17.6256765 12.6011938,18.0487882 12.5,18.1099949 C11.6790303,18.6065559 10.1694259,19.3037465 7.97118666,20.2015668 C7.25116764,19.8715307 6.64397918,19.8799968 6.1496213,20.226965 C5.21516682,20.8828179 5.45674758,22.0763453 6.51046443,22.4755765 C7.56418128,22.8748077 8.59415368,22.5355361 8.63964007,21.6332017 Z"></path>
                            <path fill="#EAEAEA" id="路径" d="M14.4089239,14.9078084 L15.2976032,8.48575152 C15.1692062,7.88777781 15.2972518,5.53697136 15.6757309,5.05654254 C16.0542101,4.57611372 16.6270774,4.28931242 17.2384928,4.27415873 C18.2003111,4.24612331 19.0513097,4.89305221 19.2815867,5.82731825 C19.4221415,9.27792647 19.4869183,12.0151485 19.4759169,14.0389844 C19.4743542,14.3264537 19.3533177,14.7789416 19.1128073,15.3964482 C19.3364208,15.9485774 19.0041413,16.1484866 18.1159688,15.9961758 C17.2277963,15.8438651 15.9921147,15.4810759 14.4089239,14.9078084 Z"></path>
                        </g>
                    </g>
                </g>
            </g>
        </g>
    </g>
</svg>