<?xml version="1.0" standalone="no"?><!DOCTYPE svg PUBLIC "-//W3C//DTD SVG 1.1//EN" "http://www.w3.org/Graphics/SVG/1.1/DTD/svg11.dtd"><svg t="1640170260844" class="icon" viewBox="0 0 1024 1024" version="1.1" xmlns="http://www.w3.org/2000/svg" p-id="5057" xmlns:xlink="http://www.w3.org/1999/xlink" width="200" height="200"><defs><style type="text/css"></style></defs><path d="M967.301 71.653H56.699C25.388 71.653 0.006 97.035 0.006 128.346v623.623c0 31.311 25.382 56.692 56.693 56.692H308.76v107.473H170.508c-23.482 0-42.52 19.037-42.52 42.52 0 23.483 19.037 42.52 42.52 42.52h682.984c23.482 0 42.52-19.036 42.52-42.52 0-23.482-19.037-42.52-42.52-42.52H715.24V808.661h252.061c31.311 0 56.693-25.382 56.693-56.692V128.346c0-31.31-25.383-56.693-56.693-56.693z m-3.307 677.008H60.006V131.653h903.988v617.008z" p-id="5058" fill="#d81e06"></path><path d="M157.669 227.559h708.662v425.197H157.669z" p-id="5059" fill="#d81e06"></path></svg>