<svg xmlns="http://www.w3.org/2000/svg" xmlns:xlink="http://www.w3.org/1999/xlink" width="163.397" height="92.338" viewBox="0 0 163.397 92.338">
  <defs>
    <linearGradient id="linear-gradient" x1="0.5" y1="1" x2="0.5" gradientUnits="objectBoundingBox">
      <stop offset="0" stop-color="#f98b8f"/>
      <stop offset="1" stop-color="#ffdedf"/>
    </linearGradient>
    <linearGradient id="linear-gradient-3" x1="0.5" y1="0.912" x2="0.5" y2="0.082" gradientUnits="objectBoundingBox">
      <stop offset="0" stop-color="#ffc2c4"/>
      <stop offset="1" stop-color="#ffefef"/>
    </linearGradient>
    <linearGradient id="linear-gradient-4" x1="1" y1="0.55" x2="0.571" y2="0.537" gradientUnits="objectBoundingBox">
      <stop offset="0" stop-color="#ff979a"/>
      <stop offset="1" stop-color="#f97c80"/>
    </linearGradient>
    <linearGradient id="linear-gradient-5" x1="0.5" y1="1" x2="0.5" gradientUnits="objectBoundingBox">
      <stop offset="0" stop-color="#f98b8f"/>
      <stop offset="1" stop-color="#ffd1d2"/>
    </linearGradient>
    <linearGradient id="linear-gradient-6" y1="0.501" x2="1" y2="0.501" gradientUnits="objectBoundingBox">
      <stop offset="0" stop-color="#fcc"/>
      <stop offset="1" stop-color="#ffa8a8"/>
    </linearGradient>
    <linearGradient id="linear-gradient-7" x1="0.5" x2="0.5" y2="1" gradientUnits="objectBoundingBox">
      <stop offset="0" stop-color="#ffe0e0"/>
      <stop offset="0.6" stop-color="#fff" stop-opacity="0.502"/>
      <stop offset="1" stop-color="#fff" stop-opacity="0"/>
    </linearGradient>
    <linearGradient id="linear-gradient-8" x1="0.327" y1="0.322" x2="0.66" y2="1" gradientUnits="objectBoundingBox">
      <stop offset="0" stop-color="#ffd3d3"/>
      <stop offset="1" stop-color="#ffafaf"/>
    </linearGradient>
    <linearGradient id="linear-gradient-9" y1="0.767" x2="0.973" y2="0.322" gradientUnits="objectBoundingBox">
      <stop offset="0" stop-color="#ffc2c4"/>
      <stop offset="1" stop-color="#ffaaad"/>
    </linearGradient>
    <linearGradient id="linear-gradient-15" x1="0.331" y1="0.077" x2="0.652" y2="0.631" gradientUnits="objectBoundingBox">
      <stop offset="0" stop-color="#ffbcbc" stop-opacity="0"/>
      <stop offset="1" stop-color="#ffafaf"/>
    </linearGradient>
    <linearGradient id="linear-gradient-19" x1="0.5" y1="0.673" x2="0.5" gradientUnits="objectBoundingBox">
      <stop offset="0" stop-color="#ffc6c6"/>
      <stop offset="1" stop-color="#faa"/>
    </linearGradient>
    <linearGradient id="linear-gradient-20" x1="0.673" y1="0.322" x2="0.34" xlink:href="#linear-gradient-8"/>
    <linearGradient id="linear-gradient-25" x1="0.669" y1="0.077" x2="0.348" y2="0.631" xlink:href="#linear-gradient-15"/>
    <linearGradient id="linear-gradient-34" x1="0.485" y1="1.067" x2="0.35" y2="-0.12" xlink:href="#linear-gradient-19"/>
    <linearGradient id="linear-gradient-35" x1="0.93" y1="1.053" x2="0.5" y2="-1.1" gradientUnits="objectBoundingBox">
      <stop offset="0" stop-color="#ffc3c3"/>
      <stop offset="0.33" stop-color="#ffb5b5"/>
      <stop offset="1" stop-color="#ff9a9a"/>
    </linearGradient>
  </defs>
  <g id="暂无数据" transform="translate(-456.679 -186.323)">
    <g id="组_6347" data-name="组 6347" transform="translate(6.641 6.633)">
      <g id="组_5830" data-name="组 5830" transform="translate(510.939 189.796)">
        <rect id="形状结合备份-3" width="49.384" height="60.848" rx="8" transform="translate(0 6.173)" fill="url(#linear-gradient)"/>
        <circle id="椭圆形" cx="6.173" cy="6.173" r="6.173" transform="translate(19.401)" fill="url(#linear-gradient)"/>
        <path id="形状结合" d="M81.973,0a6.054,6.054,0,0,1,6.054,6.054h15.514a3.027,3.027,0,0,1,3.027,3.027V63.568a3.027,3.027,0,0,1-3.027,3.027H60.027A3.027,3.027,0,0,1,57,63.568V9.081a3.027,3.027,0,0,1,3.027-3.027H75.919A6.054,6.054,0,0,1,81.973,0Z" transform="translate(-54.658 0.213)" fill="url(#linear-gradient-3)"/>
        <path id="路径-11" d="M196.905,151.117q-6.809,1.122-24.4.91l22.239-7.9A36.568,36.568,0,0,0,196.905,151.117Z" transform="translate(-147.644 -89.381)" fill-rule="evenodd" fill="url(#linear-gradient-4)"/>
        <path id="矩形" d="M122,32h43.136q-.59,27.7-.59,33.341a47.021,47.021,0,0,0,2.012,14.09c-4.915,1.464-14.944,2.894-22.99,2.894a183.282,183.282,0,0,1-19.947-1.342Q122,80.186,122,64.745Z" transform="translate(-116.253 -19.679)" fill="#fff" fill-rule="evenodd"/>
        <rect id="矩形-2" data-name="矩形" width="35.274" height="1.764" rx="0.882" transform="translate(10.582 19.401)" fill="#ffefef"/>
        <rect id="矩形备份-2" width="35.274" height="1.764" rx="0.882" transform="translate(10.582 24.692)" fill="#ffefef"/>
        <rect id="矩形备份-5" width="19.401" height="2.646" rx="1.323" transform="translate(10.582 29.101)" fill="#ffefef"/>
        <rect id="矩形备份-6" width="7.937" height="1.764" rx="0.882" transform="translate(10.582 52.911)" fill="#ffefef"/>
        <circle id="椭圆形-2" data-name="椭圆形" cx="3.321" cy="3.321" r="3.321" transform="translate(24.346 3.203)" fill="url(#linear-gradient-5)"/>
        <circle id="椭圆形-3" data-name="椭圆形" cx="3.527" cy="3.527" r="3.527" transform="translate(23.81 2.646)" fill="#fff"/>
      </g>
      <g id="butterfly_f" transform="translate(556.149 189.989) rotate(-97)">
        <path id="形状" d="M3.694,10.116a2.722,2.722,0,0,1,.2-.4,5.071,5.071,0,0,0,.7-2.988,12.627,12.627,0,0,0-.076-1.662c-.054-.25-.033-.326.087-.326.163,0,.217.152.445,1.336A5.063,5.063,0,0,1,5.085,7.6a3.453,3.453,0,0,1-.413,1.51C4.411,9.66,3.694,10.4,3.694,10.116ZM1.489,8.823c-.7-.38-.9-.837-.869-1.956a4.9,4.9,0,0,1,.511-2.13Q1.2,4.575.869,4.379A1.4,1.4,0,0,1,0,3.076c0-1.1.989-1.489,2.217-.88a5.152,5.152,0,0,1,.717.413c.369.315.391.283.348-.7-.054-1.2.1-1.619.685-1.836.348-.119.435-.109.858.1a1.172,1.172,0,0,1,.739,1.141c.033.315.054.326.739.4a5.024,5.024,0,0,1,1.9.445A1.411,1.411,0,0,1,9.127,3.63.979.979,0,0,1,8.8,4.5c-.826.869-2,.869-3.77,0-.413-.2-.771-.369-.815-.391a5.679,5.679,0,0,0-.065,1.3,4.033,4.033,0,0,1-.532,2.6,1.729,1.729,0,0,1-2.13.815Zm5.53-1.869A2.937,2.937,0,0,1,5.6,5.977c-.293-.391-.315-.608-.033-.348A4.862,4.862,0,0,0,6.6,6.27a2.015,2.015,0,0,0,1.782-.022c.5-.25.63-.206.435.152A1.683,1.683,0,0,1,7.019,6.955Z" transform="translate(0 0)" fill="url(#linear-gradient-6)"/>
      </g>
      <g id="组_5871" data-name="组 5871" transform="translate(502.011 188.687)">
        <path id="路径-4" d="M24.6,36.58Q-5.619,70.925,70.353,19" transform="translate(-16 -19)" fill="none" stroke="#ffd5d5" stroke-linecap="round" stroke-width="1" stroke-dasharray="2 4" fill-rule="evenodd"/>
      </g>
    </g>
    <path id="路径_8539" data-name="路径 8539" d="M377.794,772.132c0-2.667-19.931-9.662-44.517-9.662s-44.517,6.995-44.517,9.662Z" transform="translate(213.083 -493.47)" fill="url(#linear-gradient-7)"/>
    <g id="组_6344" data-name="组 6344" transform="translate(582.822 233.282)">
      <path id="路径_11140" data-name="路径 11140" d="M152.791,332.034c-.033-.12-.739-3.028,4.987-10.14a19.426,19.426,0,0,0,3.857-15.026l.2-.039a19.594,19.594,0,0,1-3.894,15.18c-5.664,7.04-4.958,9.949-4.95,9.976l-.2.048Z" transform="translate(-137.035 -295.807)" fill="#ffaaad"/>
      <path id="路径_11143" data-name="路径 11143" d="M110.391,302.192l-.207-.012a25.212,25.212,0,0,0-6.047-16.021c-5.422-6.554-1.966-16.193-1.931-16.289l.2.062c-.035.1-3.456,9.637,1.9,16.11A25.42,25.42,0,0,1,110.391,302.192Z" transform="translate(-96.068 -265.976)" fill="#ffaaad"/>
      <path id="路径_11149" data-name="路径 11149" d="M98.306,255.32s-.718,2.18.12,3.574a3.052,3.052,0,0,0,.96.957,4.836,4.836,0,0,0,.548.309,6.357,6.357,0,0,0,.613.257,5.994,5.994,0,0,0,.935.262,3.856,3.856,0,0,0-.12-3.294A4.491,4.491,0,0,0,98.306,255.32ZM84.917,253.5a5.073,5.073,0,0,0-.683-3.823s-2.371,1.192-2.87,2.893.917,3.607.917,3.607a4.471,4.471,0,0,0,2.638-2.673Zm16.507,11.11a4.056,4.056,0,0,0-1.935-2.758,4.763,4.763,0,0,0-3.762-.289s.521,2.347,2.09,3a5.239,5.239,0,0,0,3.607.05Zm5.384-2.642s-2.442-.127-3.694.964a4.388,4.388,0,0,0-1.128,3.194,4.67,4.67,0,0,0,3.4-.9A4,4,0,0,0,106.809,261.971Zm-29.989-.822a5.349,5.349,0,0,0,1.593,3.323,5.359,5.359,0,0,0,3.621.583,4.045,4.045,0,0,0-1.477-3.061,4.823,4.823,0,0,0-3.735-.845Zm10.622-3.078a4.374,4.374,0,0,1-1.289,3.684,5.109,5.109,0,0,1-3.663,1.234,4.139,4.139,0,0,1,.973-3.591,4.772,4.772,0,0,1,3.979-1.327Zm19.228,12.422s-2.628-.939-4.412-.15a5.31,5.31,0,0,0-2.442,3.131,4.114,4.114,0,0,0,.7.258,5.658,5.658,0,0,0,.822.164,5.267,5.267,0,0,0,1.045.029,5.2,5.2,0,0,0,1.494-.324,4.836,4.836,0,0,0,2.785-3.105Z" transform="translate(-76.82 -249.68)" fill="url(#linear-gradient-8)"/>
      <path id="路径_11150" data-name="路径 11150" d="M168.7,400.406s-2.353-1.439-4.277-1.022a5.534,5.534,0,0,0-3.1,2.575,5.322,5.322,0,0,0,3.946.934,5.041,5.041,0,0,0,3.431-2.484Z" transform="translate(-143.834 -370.447)" fill="url(#linear-gradient-9)"/>
      <path id="路径_11152" data-name="路径 11152" d="M98.05,349.689s1.655,2.924,4.056,3.557,5.1-1.08,5.1-1.08a6.17,6.17,0,0,0-3.745-3.269,6.853,6.853,0,0,0-5.409.8Zm13.889-12.773s-.108,2.438,1.169,3.671,3.688,1.074,3.688,1.074a4.167,4.167,0,0,0-1.086-3.381A5.024,5.024,0,0,0,111.939,336.916Z" transform="translate(-93.657 -320.083)" fill="url(#linear-gradient-8)"/>
      <path id="路径_11153" data-name="路径 11153" d="M87.43,356.355s1.515,2.288,3.5,2.677A6.1,6.1,0,0,0,95,357.894a5.083,5.083,0,0,0-3.228-2.461,5.553,5.553,0,0,0-4.346.926Z" transform="translate(-85.235 -334.921)" fill="#dbead3"/>
      <path id="路径_11154" data-name="路径 11154" d="M87.43,356.355s1.515,2.288,3.5,2.677A6.1,6.1,0,0,0,95,357.894a5.083,5.083,0,0,0-3.228-2.461,5.553,5.553,0,0,0-4.346.926Z" transform="translate(-85.235 -334.921)" fill="url(#linear-gradient-8)"/>
      <path id="路径_11155" data-name="路径 11155" d="M132.435,366.4s-2.007,1.933-1.924,3.819,2.187,3.4,2.187,3.4a4.745,4.745,0,0,0,1.763-3.524,4.851,4.851,0,0,0-2.028-3.7Z" transform="translate(-119.398 -343.887)" fill="#cee4d0"/>
      <path id="路径_11156" data-name="路径 11156" d="M132.435,366.4s-2.007,1.933-1.924,3.819,2.187,3.4,2.187,3.4a4.745,4.745,0,0,0,1.763-3.524,4.851,4.851,0,0,0-2.028-3.7Z" transform="translate(-119.398 -343.887)" fill="url(#linear-gradient-8)"/>
      <path id="路径_11157" data-name="路径 11157" d="M123.973,325.62s-2.7.941-3.5,2.677.408,3.948.408,3.948a5.177,5.177,0,0,0,3.218-2.477,4.623,4.623,0,0,0-.128-4.147Z" transform="translate(-111.226 -310.973)" fill="url(#linear-gradient-8)"/>
      <path id="路径_11166" data-name="路径 11166" d="M153.879,361.4s-.828,2.315.035,3.829,3.224,1.985,3.224,1.985a4.129,4.129,0,0,0-.041-3.53,4.812,4.812,0,0,0-3.216-2.282Z" transform="translate(-137.649 -339.851)" fill="url(#linear-gradient-8)"/>
      <path id="路径_11167" data-name="路径 11167" d="M173.907,313.188a4.085,4.085,0,0,0-1.924-2.7,4.763,4.763,0,0,0-3.762-.289q.012.048.025.1l5.664,2.9Z" transform="translate(-149.307 -298.309)" opacity="0.305" fill="url(#linear-gradient-15)"/>
      <path id="路径_11168" data-name="路径 11168" d="M179.548,278.942c-.033.1-.7,2.207.124,3.568a3.053,3.053,0,0,0,.96.957,4.847,4.847,0,0,0,.548.309,6.37,6.37,0,0,0,.613.257,6,6,0,0,0,.935.262s.017-.033.041-.089l-3.218-5.266Z" transform="translate(-158.064 -273.296)" opacity="0.305" fill="url(#linear-gradient-15)"/>
      <path id="路径_11169" data-name="路径 11169" d="M123.811,325.96c-.6.239-2.649,1.138-3.325,2.614a4.906,4.906,0,0,0,.344,3.819,70.854,70.854,0,0,1,2.98-6.433Z" transform="translate(-111.233 -311.247)" opacity="0.305" fill="url(#linear-gradient-15)"/>
      <path id="路径_11170" data-name="路径 11170" d="M76.83,309.14a5.349,5.349,0,0,0,1.593,3.323,5.359,5.359,0,0,0,3.621.582Z" transform="translate(-76.828 -297.671)" opacity="0.305" fill="url(#linear-gradient-15)"/>
    </g>
    <path id="路径-19" d="M115,517.261h38.374q-.087-3.176-5.243-2.6c.671-3.387-5.214-5.2-8.044-3.387-2.429-4.057-8.366-1.816-8.366,0-2.108-2.135-6.727-.958-6.961,1.414-3.5-1.543-6,.419-6,2.064Q115,514.665,115,517.261Z" transform="translate(457.058 -240.969)" fill="url(#linear-gradient-19)"/>
    <g id="组_6348" data-name="组 6348" transform="translate(456.679 214.846)">
      <g id="组_6346" data-name="组 6346" transform="matrix(0.961, 0.276, -0.276, 0.961, 30.54, 25.798)">
        <path id="路径_11427" data-name="路径 11427" d="M0,25.259l.159-.012A20.392,20.392,0,0,1,5.054,12.7C9.325,7.525,6.809.075,6.783,0L6.631.051C6.657.125,9.147,7.5,4.928,12.61A20.56,20.56,0,0,0,0,25.259Z" transform="translate(0.418 1.945)" fill="#ffaaad" stroke="#ffaaad" stroke-width="0.1"/>
        <path id="路径_11428" data-name="路径 11428" d="M2.044,2.984A4.074,4.074,0,0,1,2.627,0S4.434.894,4.793,2.211A3.91,3.91,0,0,1,4.033,5.03,3.28,3.28,0,0,1,2.043,2.987ZM8.162,8.819a4.351,4.351,0,0,1-1.276,2.608,4.144,4.144,0,0,1-2.8.5,3.284,3.284,0,0,1,1.183-2.4,3.75,3.75,0,0,1,2.888-.709ZM.033,6.572A3.336,3.336,0,0,0,.97,9.42a3.8,3.8,0,0,0,2.8.909,3.181,3.181,0,0,0-.695-2.781A3.551,3.551,0,0,0,.033,6.572Z" transform="translate(3.126 0)" fill="url(#linear-gradient-20)"/>
        <path id="路径_11429" data-name="路径 11429" d="M7.085.777S5.767,3.075,3.91,3.6A5.621,5.621,0,0,1,0,2.831,5.03,5.03,0,0,1,2.932.236,5.129,5.129,0,0,1,7.083.78Z" transform="translate(1.077 21.147)" fill="url(#linear-gradient-20)"/>
        <path id="路径_11430" data-name="路径 11430" d="M5.852.782A5.478,5.478,0,0,1,3.121,2.914,4.523,4.523,0,0,1,0,2.085,4.134,4.134,0,0,1,2.521.125a4.134,4.134,0,0,1,3.331.66Z" transform="translate(4.123 14.753)" fill="#dbead3"/>
        <path id="路径_11431" data-name="路径 11431" d="M5.852.782A5.478,5.478,0,0,1,3.121,2.914,4.523,4.523,0,0,1,0,2.085,4.134,4.134,0,0,1,2.521.125a4.134,4.134,0,0,1,3.331.66Z" transform="translate(4.123 14.753)" fill="url(#linear-gradient-20)"/>
        <path id="路径_11432" data-name="路径 11432" d="M1.615,0S3.131,1.476,3.039,2.944A4.436,4.436,0,0,1,1.3,5.622,3.539,3.539,0,0,1,0,2.9,3.959,3.959,0,0,1,1.616,0Z" transform="translate(0 16.526)" fill="#cee4d0"/>
        <path id="路径_11433" data-name="路径 11433" d="M1.615,0S3.131,1.476,3.039,2.944A4.436,4.436,0,0,1,1.3,5.622,3.539,3.539,0,0,1,0,2.9,3.959,3.959,0,0,1,1.616,0Z" transform="translate(0 16.526)" fill="url(#linear-gradient-20)"/>
        <path id="路径_11434" data-name="路径 11434" d="M.481,0S2.546.695,3.133,2.034a4.072,4.072,0,0,1-.373,3.077A3.792,3.792,0,0,1,.321,3.23,3.664,3.664,0,0,1,.481,0Z" transform="translate(1.474 10.403)" fill="url(#linear-gradient-20)"/>
        <path id="路径_11435" data-name="路径 11435" d="M0,0A4.737,4.737,0,0,1,2.521,1.987,3.9,3.9,0,0,1,2.2,4.963,53.128,53.128,0,0,0,0,0Z" transform="translate(2.085 10.452)" opacity="0.305" fill="url(#linear-gradient-25)"/>
        <path id="路径_11436" data-name="路径 11436" d="M4.072,0A4.351,4.351,0,0,1,2.8,2.608a4.143,4.143,0,0,1-2.8.5Z" transform="translate(7.74 7.753)" opacity="0.305" fill="url(#linear-gradient-25)"/>
      </g>
      <path id="路径_11143-2" data-name="路径 11143" d="M115.246,319.755l-.315-.018c.006-.125.63-12.673-9.2-24.727-8.251-10.116-2.992-24.991-2.938-25.14l.3.1c-.054.149-5.259,14.873,2.891,24.864C115.882,306.975,115.253,319.627,115.246,319.755Z" transform="translate(-93.279 -263.943)" fill="#ffaaad"/>
      <path id="路径_11426" data-name="路径 11426" d="M89.144,255.5A7.721,7.721,0,0,0,88.1,249.68s-3.609,1.814-4.368,4.4,1.4,5.49,1.4,5.49,3.263-1.18,4.015-4.069ZM76.82,267.135s.346,3.517,2.425,5.058,5.511.887,5.511.887a6.157,6.157,0,0,0-2.249-4.659,7.339,7.339,0,0,0-5.685-1.286Zm16.166-4.685a6.657,6.657,0,0,1-1.962,5.607,7.776,7.776,0,0,1-5.574,1.879,6.3,6.3,0,0,1,1.48-5.466,7.262,7.262,0,0,1,6.056-2.02Z" transform="translate(-76.82 -249.68)" fill="url(#linear-gradient-8)"/>
      <path id="路径_11152-2" data-name="路径 11152" d="M98.05,352.907s2.519,4.45,6.173,5.413,7.763-1.644,7.763-1.644a9.389,9.389,0,0,0-5.7-4.976c-4.3-1.4-8.232,1.212-8.232,1.212Z" transform="translate(-91.197 -307.155)" fill="url(#linear-gradient-8)"/>
      <path id="路径_11153-2" data-name="路径 11153" d="M87.43,356.909s2.305,3.482,5.322,4.075,6.2-1.732,6.2-1.732a7.736,7.736,0,0,0-4.913-3.746,8.451,8.451,0,0,0-6.614,1.409Z" transform="translate(-83.921 -323.853)" fill="#dbead3"/>
      <path id="路径_11154-2" data-name="路径 11154" d="M87.43,356.909s2.305,3.482,5.322,4.075,6.2-1.732,6.2-1.732a7.736,7.736,0,0,0-4.913-3.746,8.451,8.451,0,0,0-6.614,1.409Z" transform="translate(-83.921 -323.853)" fill="url(#linear-gradient-8)"/>
      <path id="路径_11155-2" data-name="路径 11155" d="M133.441,366.4s-3.055,2.941-2.929,5.813,3.329,5.178,3.329,5.178a7.221,7.221,0,0,0,2.683-5.363c.076-3.452-3.086-5.625-3.086-5.625Z" transform="translate(-113.432 -331.598)" fill="#cee4d0"/>
      <path id="路径_11156-2" data-name="路径 11156" d="M133.441,366.4s-3.055,2.941-2.929,5.813,3.329,5.178,3.329,5.178a7.221,7.221,0,0,0,2.683-5.363c.076-3.452-3.086-5.625-3.086-5.625Z" transform="translate(-113.432 -331.598)" fill="url(#linear-gradient-8)"/>
      <path id="路径_11157-2" data-name="路径 11157" d="M125.941,325.62s-4.11,1.433-5.322,4.075.62,6.009.62,6.009a7.88,7.88,0,0,0,4.9-3.769,7.035,7.035,0,0,0-.2-6.312Z" transform="translate(-106.373 -302.984)" fill="url(#linear-gradient-8)"/>
      <path id="路径_11169-2" data-name="路径 11169" d="M125.689,325.96c-.92.364-4.031,1.732-5.061,3.978-1.039,2.266.157,5.064.523,5.812a107.842,107.842,0,0,1,4.535-9.79Z" transform="translate(-106.379 -303.224)" opacity="0.305" fill="url(#linear-gradient-15)"/>
      <path id="路径_11170-2" data-name="路径 11170" d="M76.83,309.14s.346,3.517,2.425,5.058,5.511.887,5.511.887Z" transform="translate(-76.66 -291.438)" opacity="0.305" fill="url(#linear-gradient-15)"/>
    </g>
    <path id="路径-19-2" data-name="路径-19" d="M115,522.749h63.865q-.145-5.286-8.726-4.322c1.117-5.637-8.677-8.659-13.388-5.637-4.043-6.752-13.923-3.022-13.923,0-3.509-3.553-11.2-1.594-11.585,2.354-5.826-2.569-9.993.7-9.993,3.436Q115,518.428,115,522.749Z" transform="translate(345.188 -246.457)" fill="url(#linear-gradient-34)"/>
    <path id="Path备份-3" d="M78,502.315h0c0-2.058,2.137-3.726,4.773-3.726.041,0,.079.009.119.009.548-2.13,2.957-3.735,5.847-3.735a7.188,7.188,0,0,1,3.064.681A6.283,6.283,0,0,1,97.09,493c2.89,0,5.3,1.6,5.846,3.735.041,0,.078-.009.119-.009,3.295,0,5.965,2.085,5.965,4.657,0,1.544-1.6,2.794-3.579,2.794H80.386A2.174,2.174,0,0,1,78,502.315Z" transform="translate(511.056 -227.885)" fill="url(#linear-gradient-35)"/>
  </g>
</svg>
